<?xml version="1.0" encoding="UTF-8"?>
<svg viewBox="0 0 1000 600" xmlns="http://www.w3.org/2000/svg">
  <!-- Base background with light gray gradient -->
  <defs>
    <linearGradient id="baseGradient" x1="0%" y1="0%" x2="100%" y2="100%">
      <stop offset="0%" stop-color="#EEEEEE" />
      <stop offset="100%" stop-color="#E0E0E0" />
    </linearGradient>
    
    <linearGradient id="accentGradient" x1="0%" y1="0%" x2="100%" y2="100%">
      <stop offset="0%" stop-color="#DDDDDD" stop-opacity="0.7" />
      <stop offset="100%" stop-color="#D0D0D0" stop-opacity="0.7" />
    </linearGradient>
    
    <linearGradient id="tealAccent" x1="0%" y1="0%" x2="100%" y2="0%">
      <stop offset="0%" stop-color="#006D77" stop-opacity="0.08" />
      <stop offset="100%" stop-color="#006D77" stop-opacity="0.02" />
    </linearGradient>
    
    <linearGradient id="coralAccent" x1="0%" y1="0%" x2="100%" y2="0%">
      <stop offset="0%" stop-color="#FF6B6B" stop-opacity="0.07" />
      <stop offset="100%" stop-color="#FF6B6B" stop-opacity="0.01" />
    </linearGradient>
    
    <!-- Pattern for subtle texture -->
    <pattern id="dots" width="20" height="20" patternUnits="userSpaceOnUse">
      <circle cx="3" cy="3" r="1.5" fill="#006D77" fill-opacity="0.05" />
      <circle cx="13" cy="13" r="1.5" fill="#006D77" fill-opacity="0.05" />
    </pattern>
    
    <!-- Wave pattern for bottom -->
    <path id="wave" d="M0,100 C150,200 250,0 500,100 C750,200 850,0 1000,100 L1000,300 L0,300 Z" />
    
    <!-- Geometric decorator elements -->
    <path id="triangle" d="M0,0 L30,0 L15,26 Z" />
  </defs>
  
  <!-- Main background -->
  <rect width="100%" height="100%" fill="url(#baseGradient)" />
  
  <!-- Subtle pattern overlay -->
  <rect width="100%" height="100%" fill="url(#dots)" />
  
  <!-- Abstract wave shapes with very subtle teal accents -->
  <g>
    <path d="M-100,300 C100,250 200,350 400,300 C600,250 800,350 1100,300 L1100,600 L-100,600 Z" fill="url(#tealAccent)" />
    <path d="M-100,350 C100,300 200,400 400,350 C600,300 800,400 1100,350 L1100,600 L-100,600 Z" fill="#006D77" fill-opacity="0.03" />
    <path d="M-100,320 C100,270 200,370 400,320 C600,270 800,370 1100,320 L1100,600 L-100,600 Z" fill="#006D77" fill-opacity="0.02" />
  </g>
  
  <!-- Geometric elements for top section -->
  <g>
    <!-- Larger geometric shapes with greater opacity -->
    <path d="M50,50 L150,50 L100,130 Z" fill="#006D77" opacity="0.05" />
    <path d="M850,70 L950,70 L900,150 Z" fill="#FF6B6B" opacity="0.05" />
    <rect x="350" y="50" width="60" height="60" rx="10" fill="#006D77" opacity="0.04" />
    <circle cx="600" cy="150" r="40" fill="#FFD166" opacity="0.06" />
    
    <!-- Smaller geometric elements with lesser opacity -->
    <g opacity="0.04">
      <use href="#triangle" x="200" y="80" fill="#006D77" />
      <use href="#triangle" x="240" y="80" fill="#006D77" />
      <use href="#triangle" x="280" y="80" fill="#006D77" />
      
      <use href="#triangle" x="700" y="120" fill="#FF6B6B" />
      <use href="#triangle" x="740" y="120" fill="#FF6B6B" />
      <use href="#triangle" x="780" y="120" fill="#FF6B6B" />
    </g>
  </g>
  
  <!-- Accent diagonal slices -->
  <g>
    <path d="M-100,-50 L300,450 L250,500 L-150,0 Z" fill="url(#tealAccent)" />
    <path d="M900,-50 L1300,450 L1250,500 L850,0 Z" fill="url(#coralAccent)" />
  </g>
  
  <!-- Subtle horizontal lines -->
  <g>
    <line x1="0" y1="200" x2="1000" y2="200" stroke="#006D77" stroke-opacity="0.07" stroke-width="1" />
    <line x1="0" y1="400" x2="1000" y2="400" stroke="#006D77" stroke-opacity="0.07" stroke-width="1" />
  </g>
  
  <!-- Ultra-subtle brand color accents around edges -->
  <rect x="0" y="0" width="1000" height="4" fill="#006D77" fill-opacity="0.08" />
  <rect x="0" y="596" width="1000" height="4" fill="#FF6B6B" fill-opacity="0.08" />
</svg>